<?xml version="1.0" encoding="UTF-8" standalone="no"?>
<!-- Created with Inkscape (http://www.inkscape.org/) -->

<svg
   version="1.1"
   id="svg1"
   width="600"
   height="600"
   viewBox="0 0 600 600"
   xmlns="http://www.w3.org/2000/svg"
   xmlns:svg="http://www.w3.org/2000/svg">
  <defs
     id="defs1" />
  <g
     id="g1">
    <g
       id="g6">
      <path
         style="fill:#fefefe"
         d="M 0,300 V 0 H 300 600 V 300 600 H 300 0 Z m 332.5,292.92901 c 25.40853,-2.40063 57.2363,-9.6821 74,-16.92953 1.1,-0.47556 6.5,-2.7424 12,-5.03741 55.04614,-22.96937 104.79906,-66.97757 137.03461,-121.2119 6.94538,-11.68517 15.21375,-28.0294 16.83058,-33.26927 0.5488,-1.77859 -2.30197,-3.60764 -23.93265,-15.35511 -13.50561,-7.3348 -24.69412,-13.1762 -24.86334,-12.98089 -0.16922,0.1953 -2.48245,4.8551 -5.14051,10.3551 -36.1927,74.88914 -99.70868,126.62536 -172.92869,140.85713 -55.33324,10.75511 -119.89782,1.5719 -171.8706,-24.44567 -19.51188,-9.76764 -33.82238,-19.33862 -50.36388,-33.68376 l -7.23449,-6.2739 -14.01551,5.93547 L 88,486.82474 v -21.44571 -21.4457 L 80.797235,433.21666 C 66.448723,411.86817 53.33985,382.39473 46.916886,357.0415 33.578653,304.39179 35.55649,249.6303 52.715212,196.5 c 1.953881,-6.05 3.864785,-11.45 4.246454,-12 0.381668,-0.55 1.511747,-3.25 2.511286,-6 2.464661,-6.78094 13.303446,-28.47399 18.318106,-36.66237 C 117.65829,76.738865 182.24717,32.095309 259,16.586779 c 38.63891,-7.8073038 80.33392,-8.1435525 118.35771,-0.954493 10.28357,1.944289 10.77703,1.161443 0.93727,-1.486942 C 336.56486,2.9136252 289.13227,1.4612369 244.5,10.048536 197.68042,19.056676 154.34402,39.116218 117,69.065708 104.50795,79.084195 83.753945,99.527375 75.447634,109.99576 c -3.271199,4.12267 -6.755699,8.3921 -7.743334,9.48762 -0.987634,1.09552 -6.041913,8.37906 -11.231729,16.18565 C 31.629128,173.03885 16.351344,213.00697 9.3294039,259 c -2.4728355,16.19683 -2.4795918,60.45832 -0.01183,77.5 2.7515381,19.00136 4.6753111,28.16717 9.3399251,44.5 30.852336,108.02739 120.345741,189.51741 229.380531,208.86704 9.91724,1.75994 19.05983,2.82486 38.96197,4.53828 6.62142,0.57005 32.84763,-0.28089 45.5,-1.47631 z m -15,-86.96399 c 25.34743,-2.14259 53.98621,-9.58052 78.60333,-20.41449 48.51614,-21.3519 86.31262,-60.21873 100.34706,-103.18875 2.98003,-9.12414 3.15897,-12.03096 0.89462,-14.53304 -2.38618,-2.63671 -6.01376,-2.31755 -23.91902,2.10441 -85.31945,21.07086 -199.22788,57.30869 -268.78338,85.50839 -17.38053,7.04654 -19.2721,8.03364 -19.88481,10.37662 -1.79309,6.85678 12.24652,18.47773 31.7422,26.27384 30.07911,12.02832 65.41068,16.88134 101,13.87302 z m 70.58333,-28.356 c 0.22917,-0.21504 3.56667,-2.52915 7.41667,-5.14247 23.33623,-15.84029 44.05919,-40.30098 55.88646,-65.96655 2.02762,-4.4 4.45765,-9.56989 5.40006,-11.48865 4.8077,-9.78849 16.53958,-5.64051 13.39416,4.7357 -1.3192,4.35182 -9.70105,18.55945 -16.10708,27.30225 -8.89788,12.14361 -24.15729,26.26627 -39.65709,36.70284 -8.84923,5.95851 -29.49211,16.82107 -26.33318,13.85688 z M 111.73974,470.89094 C 138.07543,460.00541 138,460.14589 138,421.98442 v -23.91713 l 13.25,14.17721 c 27.27384,29.18241 27.95828,29.69382 39.79424,29.73354 17.52581,0.0588 29.0558,-17.87548 21.37345,-33.24527 -0.88872,-1.77803 -8.83585,-10.50242 -17.6603,-19.38754 -9.84361,-9.91129 -15.82986,-16.67467 -15.4892,-17.5 0.30539,-0.73988 5.29825,-8.77023 11.09525,-17.84523 23.32335,-36.51191 25.06226,-40.15004 22.6639,-47.41716 -4.06344,-12.31233 -19.59047,-17.80859 -30.84838,-10.91972 -4.20811,2.575 -6.0664,5.17632 -18.46633,25.85 C 156.12958,334.1559 147.35458,349 144.21263,354.5 l -5.71263,10 -0.26747,-24.75 C 138.08542,326.1375 137.57027,315 137.08775,315 c -0.48252,0 -10.48716,3.9935 -22.23253,8.87444 L 93.5,332.74888 93.243468,405.37444 c -0.141093,39.94406 0.08391,72.62934 0.5,72.63395 0.416092,0.005 8.514412,-3.19824 17.996272,-7.11745 z m 143.68553,-54.55377 c 2.15889,-1.42864 5.18343,-3.97503 6.72118,-5.65866 C 268.04917,404.21587 268,404.87404 268,332.32186 268,295.84484 267.72547,266 267.38994,266 c -2.71315,0 -28.7519,9.813 -32.4326,12.2226 -5.7554,3.7678 -10.3292,10.56571 -11.82599,17.57662 C 222.35621,299.42996 222,321.34638 222,365.40733 v 64.30888 l 14.75,-5.39076 c 8.1125,-2.96492 16.51637,-6.55965 18.67527,-7.98828 z M 287.5,406.79496 c 22.6556,-7.55542 28.29458,-10.86841 32.84158,-19.29496 2.04084,-3.7821 2.18566,-5.66717 2.65842,-34.60493 l 0.5,-30.60493 9.5,11.08457 c 29.16424,34.02876 36.05025,41.42866 40.49644,43.51861 11.4289,5.37222 26.31473,0.006 31.60371,-11.39332 1.74778,-3.76692 1.85721,-7.8313 1.87789,-69.75 0.0121,-36.1625 -0.31554,-65.74879 -0.72804,-65.74731 -0.4125,0.001 -6.07955,1.34998 -12.59343,2.99666 -16.3921,4.14384 -22.87196,8.91594 -25.64054,18.88302 -0.55268,1.9897 -1.00739,15.08803 -1.01045,29.10741 L 367,306.47956 364.74546,303.98978 C 363.50547,302.6204 359.34511,297.675 355.50021,293 c -3.84489,-4.675 -8.39188,-10.075 -10.10442,-12 -1.71255,-1.925 -6.83967,-7.68523 -11.39362,-12.80052 -4.55395,-5.11529 -9.99949,-10.17779 -12.1012,-11.25 -5.91114,-3.01564 -14.17051,-2.46832 -28.40097,1.88203 l -12,3.66849 -0.25652,73.35949 c -0.24348,69.63081 -0.16724,73.32331 1.5,72.64772 0.96609,-0.39148 3.10652,-1.16199 4.75652,-1.71225 z m 289.61753,-12.5877 c 20.2056,-10.55553 17.38992,-40.01914 -4.50901,-47.18276 -5.3149,-1.73862 -16.07803,-0.85442 -21.10852,1.73408 -8.45387,4.35005 -12.71216,11.19292 -13.30159,21.37501 -0.49549,8.55933 1.46401,14.09581 6.98892,19.74681 7.50323,7.67449 21.81079,9.6133 31.9302,4.32686 z M 560.43064,391.0213 C 538.0805,385.96189 541.50507,352 564.36538,352 575.36748,352 583,359.99099 583,371.50982 c 0,12.90346 -10.74089,22.1891 -22.56936,19.51148 z M 560,379.92668 c 0,-7.8626 2.00235,-7.76603 6.72988,0.32457 2.88883,4.94388 3.77293,5.74875 6.31463,5.74875 1.62552,0 2.95549,-0.20246 2.95549,-0.44992 0,-0.24746 -1.57613,-3.05996 -3.50252,-6.25 -3.05151,-5.05321 -3.27685,-5.84557 -1.75,-6.15332 C 574.19375,372.45213 576,369.82254 576,365.5 c 0,-6.47897 -2.26749,-7.9238 -13.10354,-8.3495 L 554,356.801 V 371.4005 386 h 3 3 z m 0,-14.48418 c 0,-3.55434 0.004,-3.55722 4.14816,-3.25 7.8425,0.58136 7.59501,6.8075 -0.2706,6.8075 C 560.10079,369 560,368.90753 560,365.4425 Z m -74,-9.96596 c 18.81566,-2.08672 41.2233,-13.54958 48.77578,-24.95174 5.8048,-8.76365 6.28463,-12.27389 5.98963,-43.81764 L 540.5,258.32812 511.00939,264.6494 c -16.21983,3.47671 -30.05733,6.53876 -30.75,6.80456 -0.89412,0.3431 -1.25831,3.32026 -1.25565,10.26466 0.006,16.74968 4.00271,20.13632 19.74626,16.73378 L 502,297.75 v 6.22379 c 0,5.64555 -0.28274,6.48791 -3.04326,9.06662 -3.88666,3.63068 -12.9152,6.29405 -19.45674,5.73962 -14.14973,-1.19927 -21.51534,-11.80267 -21.48813,-30.93394 0.0207,-14.54803 4.46693,-25.60754 13.46093,-33.48252 9.53655,-8.35002 25.90707,-11.97686 40.82762,-9.04522 13.32028,2.6172 17.90955,2.3142 22.21587,-1.46679 4.91748,-4.31761 6.48371,-7.78205 6.48371,-14.34174 0,-14.56271 -10.41675,-21.08193 -35.5,-22.21734 -41.55798,-1.88114 -74.9266,19.21026 -87.12254,55.06779 -7.18749,21.1321 -6.374,47.90285 1.9537,64.29384 8.23785,16.21415 24.83797,27.18228 44.28223,29.25842 7.76424,0.82901 10.47936,0.77366 21.38661,-0.43599 z M 92.906383,318.03963 c 25.986757,-11.00172 31.943287,-14.1356 38.829347,-20.42907 8.88918,-8.12421 12.96742,-19.71845 10.86948,-30.90142 -0.85355,-4.5498 -7.67325,-12.24646 -12.16444,-13.72869 l -3.5121,-1.1591 3.50063,-3.87477 c 6.32758,-7.00388 8.95986,-13.44037 8.97532,-21.94658 0.0117,-6.45988 -0.36202,-8.08655 -2.69507,-11.72946 -3.94989,-6.16748 -9.35919,-8.66888 -18.70955,-8.65176 -8.41896,0.0154 -10.71488,0.68821 -32.75,9.59716 L 70,221.38162 v 52.80919 C 70,303.50308 70.387418,327 70.870721,327 c 0.478896,0 10.394944,-4.03216 22.035662,-8.96037 z M 98,280.60753 v -12.52725 l 4.05336,-1.21441 c 5.52073,-1.65406 8.97174,-0.32571 11.25098,4.33065 3.76532,7.69238 -2.49919,17.87772 -13.05434,21.22478 L 98,293.13478 Z m 0,-40.43975 v -10.83222 l 3.59008,-1.10183 c 6.17481,-1.8951 10.40992,0.94091 10.40992,6.97092 0,5.23927 -2.23837,9.23108 -7.18591,12.81507 C 98.246627,252.77716 98,252.49297 98,240.16778 Z m 85.60766,43.89135 c 18.27708,-5.73081 27.71267,-14.67749 32.11676,-30.45263 1.45196,-5.2008 1.71006,-11.22963 1.7402,-40.64811 0.0398,-38.898 -0.0159,-39.22078 -7.00209,-40.5314 -3.30652,-0.6203 -13.28004,1.90163 -18.71253,4.73171 -1.61737,0.84257 -1.75,3.63978 -1.75,36.9086 0,38.61619 -0.26413,40.90301 -5.11687,44.30201 -1.28048,0.89688 -3.79264,1.63069 -5.58258,1.63069 -5.82593,0 -6.00084,-0.95159 -6.709,-36.5 l -0.63748,-32 -2.5328,-2.25 c -3.3775,-3.00039 -8.11579,-2.82953 -16.92127,0.61017 l -7,2.73443 v 37.4527 c 0,35.97146 0.0832,37.63067 2.10308,41.9527 5.87052,12.56126 19.66647,17.18198 36.00458,12.05913 z m 49.0257,-20.43443 c 8.94385,-3.042 12.27,-4.79684 15.36664,-8.10728 2.40868,-2.57498 2.5117,-3.23592 2.82039,-18.09501 C 250.99661,228.94008 251.50375,222 251.94737,222 c 0.44362,0 5.84384,5.37496 12.00049,11.94436 13.14555,14.02685 16.92845,16.19014 24.57,14.05064 7.53573,-2.10988 11.49958,-8.75805 9.99707,-16.76711 -0.53875,-2.87179 -2.70785,-5.56663 -10.54202,-13.09715 l -9.8637,-9.48138 5.19539,-5.63199 c 8.28757,-8.98402 10.1954,-13.67839 10.1954,-25.08664 0,-11.86061 -2.23081,-16.12273 -10.6292,-20.30782 -9.64213,-4.80488 -21.72005,-3.40726 -48.3708,5.59732 l -10,3.37873 -0.25934,49.70052 C 224.09803,243.63477 224.35671,266 224.81551,266 c 0.4588,0 3.97683,-1.06888 7.81785,-2.3753 z M 251,191.54531 v -13.45468 l 3.75,-0.74134 c 4.7616,-0.94131 7.2966,-0.5681 9.5,1.39864 2.25769,2.01521 2.32435,9.23945 0.12797,13.86799 C 262.79632,195.94899 253.67074,205 251.89185,205 251.40133,205 251,198.94539 251,191.54531 Z m 95.20078,41.37725 c 14.97527,-3.04479 26.1915,-9.89068 30.70731,-18.74241 C 378.84014,210.39302 379,208.42361 379,188.40817 v -21.67151 l -3.75,0.60198 c -2.0625,0.33109 -6.45,1.23644 -9.75,2.0119 -3.3,0.77546 -10.2521,2.36342 -15.44911,3.5288 -5.19701,1.16539 -9.86419,2.53396 -10.3715,3.04127 -0.50731,0.50731 -0.7355,3.85724 -0.5071,7.44428 0.57422,9.01786 2.45986,11.04938 9.57771,10.31861 l 5.25,-0.53899 v 6.40469 c 0,8.2922 -2.04817,9.9508 -12.28805,9.9508 -6.47801,0 -7.04207,-0.18585 -9.74489,-3.21084 -8.58821,-9.61187 -6.5228,-32.49562 3.84474,-42.59773 6.13529,-5.97822 10.04327,-7.1548 23.04183,-6.93726 13.03639,0.21817 15.96714,-0.74936 18.51153,-6.11125 3.54849,-7.4779 0.51518,-14.78982 -7.39265,-17.82022 -5.91096,-2.26517 -21.95512,-2.39489 -30.32817,-0.24521 -24.84235,6.37799 -40.29373,26.22513 -41.97972,53.92251 -2.0091,33.00565 18.42058,52.54568 48.53616,46.42256 z M 393,219.11673 c 2.475,-0.60342 13.41263,-3.12448 24.30585,-5.60237 10.89321,-2.47788 20.88693,-5.29479 22.20827,-6.2598 3.32783,-2.43041 4.48588,-6.30551 4.48588,-15.01077 0,-6.69809 -0.17826,-7.38768 -1.75,-6.7697 -0.9625,0.37844 -4.9,1.32808 -8.75,2.11032 -3.85,0.78224 -9.925,2.07995 -13.5,2.8838 -3.575,0.80384 -6.85502,1.47734 -7.28893,1.49666 -0.43392,0.0193 -0.65892,-3.90237 -0.5,-8.71487 l 0.28893,-8.75 4,-1.13488 c 2.2,-0.62419 7.43305,-1.88723 11.62901,-2.80676 10.06284,-2.20525 11.82318,-4.04963 12.25171,-12.83663 0.49555,-10.16104 1.38319,-9.86458 -17.31017,-5.7814 -5.1862,1.13282 -9.7987,2.05967 -10.25,2.05967 -0.4513,0 -0.82055,-3.15 -0.82055,-7 0,-3.85 0.12252,-7 0.27226,-7 0.14974,0 5.59693,-1.10417 12.10487,-2.4537 C 441.62928,133.96875 443,132.64257 443,119.52852 c 0,-6.47028 -0.20763,-7.29604 -1.75,-6.96001 -0.9625,0.2097 -9.87652,1.9487 -19.80892,3.86444 -9.93241,1.91575 -18.70741,3.69276 -19.5,3.94892 -0.7926,0.25616 -4.92858,1.20573 -9.19108,2.11015 l -7.75,1.6444 v 48.49918 c 0,45.69844 0.10106,48.47258 1.75,48.03871 0.9625,-0.25326 3.775,-0.95417 6.25,-1.55758 z m 66.256,-14.17704 c 13.66233,-2.3197 16.74014,-6.76656 16.74245,-24.18969 8.5e-4,-6.4625 0.33905,-11.72654 0.75155,-11.69786 0.4125,0.0287 5.42299,5.68294 11.13441,12.56502 11.43063,13.77353 13.24843,15.32271 18.86325,16.07582 8.79744,1.17998 15.70359,-5.24059 14.9583,-13.90658 -0.43657,-5.07623 -1.88512,-7.19269 -13.54225,-19.7864 l -6.01661,-6.5 5.32495,-5.5 c 7.81176,-8.06857 9.98159,-12.851 9.98159,-22 0,-5.7985 -0.4986,-8.44224 -2.1978,-11.65327 C 510.86914,110.05698 501.50215,105 490.53386,105 c -4.2706,0 -29.18748,3.58908 -38.78386,5.58651 l -2.75,0.5724 v 47.98793 c 0,45.23575 0.10037,47.95788 1.75,47.46394 0.9625,-0.2882 4.7902,-1.04019 8.506,-1.67109 z M 476.21922,138.75 476.5,126.5 l 4.33168,-0.31149 c 6.49506,-0.46706 9.16832,1.69069 9.16832,7.40028 0,5.09656 -1.04387,7.6141 -4.87219,11.75049 -2.35911,2.54895 -7.09155,5.66072 -8.60893,5.66072 -0.31924,0 -0.45409,-5.5125 -0.29966,-12.25 z M 157.3893,164.42108 c 57.34946,-18.8427 78.98453,-25.53259 116.6107,-36.05774 13.01659,-3.64112 51.36438,-13.31487 63.5,-16.01873 3.85,-0.85779 9.475,-2.13627 12.5,-2.84106 22.34521,-5.20621 63.58539,-13.619458 83.8528,-17.106488 8.79314,-1.512869 10.59171,-2.145835 11.93865,-4.201534 1.48167,-2.261304 1.43053,-2.71312 -0.77827,-6.876756 C 437.97488,68.05144 410.14828,49.971313 386.5,43.300268 c -25.31337,-7.14076 -37.69927,-8.802869 -65,-8.72259 -28.09355,0.08261 -44.66923,2.228691 -70,9.063016 C 197.3382,58.253724 156.17583,90.642458 134.97783,135.32652 124.25979,157.91948 121.97166,173 129.26174,173 c 1.10927,0 13.76667,-3.86051 28.12756,-8.57892 z m -6.86315,-16.39218 c -1.69212,-1.86978 -1.69822,-2.31188 -0.11848,-8.60082 5.48474,-21.83489 29.78651,-52.533232 54.41204,-68.734076 7.17487,-4.720265 16.06602,-9.451955 11.2115,-5.966532 C 192.25078,81.801204 170.16962,111.8412 161.43654,139 c -1.50328,4.675 -3.17158,9.0625 -3.70733,9.75 -1.46322,1.87765 -5.18874,1.50469 -7.20306,-0.7211 z M 378.46446,86.58817 c 7.57251,-7.572511 7.40047,-13.678649 -0.62447,-22.163839 C 368.8994,54.970979 349.42591,47.0457 325.24708,43.020191 L 314.5,41.23092 l 6.52623,-0.11546 c 30.52545,-0.540045 69.22072,12.532591 80.72377,27.271352 4.16013,5.330342 2.46786,12.929652 -3.5607,15.989655 C 396.04767,85.463521 376.23477,91 374.48625,91 c -0.23849,0 1.55171,-1.985324 3.97821,-4.41183 z"
         id="path12" />
      <path
         style="fill:#f79c9e"
         d="M 93.232665,405.80902 C 93.104699,365.82898 93.3375,332.90928 93.75,332.65414 94.429956,332.23358 94.421571,384.88742 93.730916,452.5 93.584844,466.8 93.36063,445.78906 93.232665,405.80902 Z M 137.43466,423 c 0,-14.025 0.14065,-19.7625 0.31255,-12.75 0.1719,7.0125 0.1719,18.4875 0,25.5 -0.1719,7.0125 -0.31255,1.275 -0.31255,-12.75 z M 281,336.05902 c 0,-40.11754 0.3375,-73.14957 0.75,-73.40451 0.4125,-0.25494 0.75,32.5685 0.75,72.94098 C 282.5,375.96797 282.1625,409 281.75,409 281.3375,409 281,376.17656 281,336.05902 Z m -86.96404,53.47699 c -9.04272,-9.0552 -16.23761,-16.5927 -15.98864,-16.75 0.24898,-0.15731 7.86289,7.25149 16.91981,16.46399 9.05692,9.2125 16.25181,16.75 15.98863,16.75 -0.26317,0 -7.87708,-7.4088 -16.9198,-16.46399 z M 70.465921,274 c 0,-29.425 0.127518,-41.4625 0.283373,-26.75 0.155855,14.7125 0.155855,38.7875 0,53.5 -0.155855,14.7125 -0.283373,2.675 -0.283373,-26.75 z M 172.41683,235.5 c 9.6e-4,-10.45 0.14915,-14.58913 0.3293,-9.19806 0.18015,5.39107 0.17936,13.94107 -0.002,19 -0.18111,5.05893 -0.32851,0.64806 -0.32755,-9.80194 z m 18.03335,-23 c 3.4e-4,-19.25 0.13469,-26.98347 0.29856,-17.1855 0.16386,9.79798 0.16358,25.54798 -6.2e-4,35 -0.16421,9.45203 -0.29828,1.4355 -0.29794,-17.8145 z m 26.99034,-1.5 c 0,-15.675 0.13824,-22.0875 0.3072,-14.25 0.16896,7.8375 0.16896,20.6625 0,28.5 -0.16896,7.8375 -0.3072,1.425 -0.3072,-14.25 z m 231.78426,-52.25 c 0.12363,-26.5375 0.34727,-40.6 0.49698,-31.25 0.69714,43.53945 0.70991,79.50101 0.0282,79.50053 -0.4125,-2.9e-4 -0.64885,-21.71303 -0.52522,-48.25053 z m -63.76907,4.75 c 2.7e-4,-22 0.13226,-30.85753 0.29331,-19.6834 0.16105,11.17413 0.16083,29.17413 -4.9e-4,40 -0.16132,10.82587 -0.29309,1.6834 -0.29282,-20.3166 z M 475,139.55902 c 0,-6.84254 0.3375,-12.64957 0.75,-12.90451 0.4125,-0.25494 0.75,5.3435 0.75,12.44098 0,7.09748 -0.3375,12.90451 -0.75,12.90451 -0.4125,0 -0.75,-5.59844 -0.75,-12.44098 z"
         id="path11" />
      <path
         style="fill:#f9b010"
         d="M 266.5,504.43538 C 246.61561,501.73402 225.66879,496.05872 213.0857,489.96339 209.72104,488.33352 206.73928,487 206.45956,487 c -1.73451,0 -13.92502,-8.7813 -17.35251,-12.49969 -4.47116,-4.85064 -5.07799,-7.52937 -2.32851,-10.27885 1.88239,-1.88239 38.90295,-16.97312 60.74157,-24.76015 7.13894,-2.54554 15.22989,-5.44019 17.97989,-6.43257 49.84377,-17.98678 145.63578,-46.97797 200,-60.52945 24.51677,-6.11135 30.00794,-6.89217 31.53088,-4.48357 2.55909,4.04734 -0.73794,16.31887 -8.70551,32.40184 -24.4546,49.36294 -74.7862,85.53116 -139.32537,100.11905 -24.05776,5.43781 -59.01214,7.08968 -82.5,3.89877 z m 125.89376,-27.79094 c 18.71604,-8.64735 32.59542,-18.40632 47.69443,-33.53526 14.38022,-14.40873 22.90402,-26.11333 29.48469,-40.48741 3.58515,-7.831 1.45676,-13.64576 -4.97787,-13.59953 -4.78255,0.0344 -7.07734,2.65022 -11.82351,13.47776 -7.86623,17.94539 -23.97191,41.09374 -36.90111,53.03718 -6.28937,5.80985 -17.27901,14.38543 -25.35971,19.78903 -8.29579,5.54743 -7.88813,5.8328 1.88308,1.31823 z M 126.46605,171.32319 c -3.2559,-3.2559 0.68075,-18.63621 9.42109,-36.80769 C 165.62147,72.696734 235.89434,35 321.40028,35 c 51.59329,0 93.77037,14.190845 117.40957,39.503466 10.61865,11.370353 10.00741,14.746557 -3.09306,17.08444 C 391.90908,99.405744 353.95451,107.496 312,117.95892 c -18.87766,4.70785 -27.22506,6.87702 -43,11.17404 -10.11782,2.75605 -46.51604,13.58511 -51.5,15.32208 -2.2,0.76673 -10.75,3.50246 -19,6.07941 -8.25,2.57694 -27.13975,8.68589 -41.97721,13.57545 -14.83747,4.88955 -27.29283,8.8901 -27.67858,8.8901 -0.38574,0 -1.45592,-0.75456 -2.37816,-1.67681 z M 157.77749,149.4433 C 158.99987,148.58711 160,147.08256 160,146.09985 c 0,-3.58028 4.13094,-14.34871 10.20412,-26.59985 8.65524,-17.45978 27.64347,-40.175077 43.56238,-52.112911 9.98032,-7.484396 10.30425,-7.785155 6.7335,-6.251723 -10.67654,4.584957 -25.88081,15.474067 -37.07882,26.555389 -22.25038,22.018525 -39.45809,54.086045 -32.9073,61.324585 2.16173,2.38868 4.28563,2.51382 7.26361,0.42796 z M 383.36789,89.520311 C 396.85848,86.162613 401.8416,83.623342 403.70848,79.155286 410.95045,61.822803 365.55719,40.699124 322,41.132377 c -11.43337,0.113725 -11.98802,0.201019 -6.5,1.023006 28.52963,4.273129 43.46746,9.014615 56.73007,18.006959 3.15154,2.136814 6.86404,5.553899 8.25,7.593522 5.34952,7.872514 1.96017,17.501721 -7.98007,22.671543 -4.45384,2.316398 -0.88753,2.018733 10.86789,-0.907096 z"
         id="path10" />
      <path
         style="fill:#f35d62"
         d="m 136.78292,340.54855 c -0.1556,-13.99829 0.0388,-25.12907 0.43203,-24.73505 0.94122,0.94313 1.49853,50.18827 0.56797,50.18727 -0.39439,-4.2e-4 -0.84439,-11.45392 -1,-25.45222 z m 8.69689,-112.9655 c 0.0175,-30.17721 0.2238,-34.97249 1.52019,-35.32613 1.09669,-0.29916 1.1675,-0.17341 0.26336,0.46771 -0.93161,0.66059 -1.30658,9.37413 -1.52019,35.32613 L 145.45962,262.5 Z"
         id="path9" />
      <path
         style="fill:#6690ba"
         d="m 87.427512,465 c 0,-12.375 0.143548,-17.4375 0.318995,-11.25 0.175447,6.1875 0.175447,16.3125 0,22.5 -0.175447,6.1875 -0.318995,1.125 -0.318995,-11.25 z"
         id="path8" />
      <path
         style="fill:#ed161c"
         d="M 94.243425,404.96026 94.5,332.92052 103,329.41134 C 125.46199,320.13801 135.75122,316 136.34748,316 136.70637,316 137,327.25 137,341 c 0,13.75 0.34613,25 0.76918,25 0.42304,0 2.19803,-2.5875 3.94442,-5.75 8.12738,-14.71773 33.379,-57.08517 35.69247,-59.88522 12.54309,-15.18122 39.04951,-3.94727 35.07028,14.86349 -0.81787,3.86626 -0.95215,4.0969 -18.5388,31.83967 -7.51977,11.86237 -14.22179,22.59465 -14.89338,23.84952 -1.14759,2.1443 -0.22999,3.28355 15.25025,18.93385 C 211.80453,407.55377 214,410.80134 214,419 c 0,9.2363 -4.42021,15.86441 -13.41876,20.12149 -6.96285,3.29401 -11.18086,3.57501 -18.12851,1.2077 -5.41728,-1.84585 -8.39074,-4.59243 -30.39872,-28.07919 -7.34404,-7.8375 -13.70912,-14.25 -14.14462,-14.25 -0.43551,0 -0.93078,12.2625 -1.10061,27.25 -0.41063,36.23802 0.82844,34.03044 -25.25738,44.99975 -8.82827,3.71236 -16.391859,6.74986 -16.807975,6.75 -0.416117,1.4e-4 -0.641117,-32.41763 -0.5,-72.03949 z M 222.19836,363.197 c 0.31095,-64.74359 0.34701,-65.77405 2.48496,-71.00608 4.59126,-11.23584 9.18955,-14.57454 29.17809,-21.18541 6.66105,-2.20303 12.56721,-4.00551 13.1248,-4.00551 1.74122,0 1.33114,126.21855 -0.4316,132.8411 -2.98075,11.19861 -9.32802,16.542 -27.55461,23.19661 -6.325,2.30929 -12.76386,4.57166 -14.30859,5.02749 l -2.80858,0.82879 z M 282,335.46615 v -72.39734 l 11.75,-3.70583 c 14.43011,-4.55111 22.84905,-5.00997 28.44671,-1.55042 4.01285,2.48007 15.24741,14.71325 32.688,35.59354 L 366.5,307.31221 367.05555,280.9061 c 0.45677,-21.71116 0.86372,-27.20367 2.28884,-30.89193 2.04437,-5.29088 5.78524,-9.49219 10.70684,-12.02467 3.27804,-1.68676 22.7912,-6.98602 25.73317,-6.98844 1.03566,-8.5e-4 1.22933,12.63545 1,65.24894 -0.31097,71.34625 -0.0722,68.4524 -6.19357,75.05749 -5.80319,6.26175 -19.36959,8.78946 -27.2087,5.06955 -3.79232,-1.79957 -5.43353,-3.58395 -40.1626,-43.66609 C 328.11527,326.81993 323.53165,322 323.03371,322 c -0.52347,0 -0.82696,11.91565 -0.71952,28.25 0.20488,31.14919 -0.28669,34.83461 -5.48802,41.14471 -4.12672,5.00644 -9.71971,8.03412 -23.21913,12.56933 L 282,407.86349 Z m 273.38535,59.91669 c -10.37351,-3.67899 -16.764,-12.78321 -16.764,-23.88284 0,-11.54739 6.39482,-20.26362 17.49755,-23.8494 6.30396,-2.03596 9.12244,-2.06507 15.53595,-0.16046 11.64444,3.45803 18.31626,12.21419 18.33538,24.06352 0.0287,17.79281 -17.53091,29.8845 -34.60488,23.82918 z M 573.02474,389.75 c 2.60087,-1.31549 5.70008,-4.05097 7.46188,-6.58614 2.68252,-3.86005 3.01338,-5.1407 3.01338,-11.66386 0,-6.53144 -0.326,-7.78923 -3,-11.5748 -7.95783,-11.26586 -23.21912,-11.54411 -31.94203,-0.58238 -2.85249,3.5846 -3.05797,4.39669 -3.05797,12.0855 0,7.43126 0.28024,8.64706 2.84675,12.35055 5.4681,7.89047 15.89509,10.4134 24.67799,5.97113 z m -18.35807,-4.41667 C 554.3,384.96667 554,378.66667 554,371.33333 V 358 h 8.27749 c 9.37252,0 12.18231,1.26401 13.2099,5.94259 0.82167,3.74101 -0.85943,6.88992 -4.4942,8.41823 l -2.84934,1.19806 3.40549,5.47056 c 4.01717,6.45317 4.16031,7.21401 1.27739,6.79011 -1.41439,-0.20797 -3.45115,-2.41467 -5.83288,-6.31955 -5.08744,-8.34095 -7.38585,-8.2672 -7.79157,0.25 -0.24875,5.22205 -0.5914,6.25 -2.08333,6.25 -0.98209,0 -2.08562,-0.3 -2.45228,-0.66667 z m 14.34958,-17.1454 c 4.44135,-3.59639 -0.73493,-8.33754 -7.66639,-7.02194 -1.89558,0.35979 -3.02321,4.63691 -1.95582,7.41848 0.77841,2.0285 6.94104,1.77453 9.62221,-0.39654 z M 458.5,354.35752 c -21.21055,-4.48278 -36.40087,-19.03938 -42.18989,-40.42976 -2.64298,-9.76581 -2.33136,-32.52459 0.60832,-44.42776 7.01758,-28.41517 26.51661,-48.58603 56.08157,-58.01386 12.43616,-3.96571 35.74393,-4.71535 48.06506,-1.5459 10.78582,2.77451 15.47588,5.823 17.99304,11.6953 3.93807,9.18716 0.81473,19.15233 -7.38825,23.57254 -3.99168,2.15093 -6.34183,2.17977 -15.66985,0.19229 -9.73737,-2.0747 -25.35975,-1.43357 -32.59407,1.33763 -11.17017,4.27889 -19.13533,12.13983 -23.57037,23.262 -3.03757,7.61758 -3.27065,26.05475 -0.4235,33.5 4.40999,11.53207 10.12971,15.50549 22.2981,15.49023 6.11653,-0.008 8.90049,-0.52689 12.96032,-2.41715 C 501.0488,313.60332 502,311.90014 502,303.44911 c 0,-6.47303 -0.0705,-6.66019 -2.25,-5.97419 -1.2375,0.38951 -4.725,0.93595 -7.75,1.21432 -9.68361,0.89113 -12.98354,-3.89746 -12.99442,-18.85638 l -0.006,-7.66713 5.25,-1.14723 c 2.8875,-0.63097 11.325,-2.42823 18.75,-3.9939 7.425,-1.56567 18.8235,-4.01171 25.33,-5.43564 C 534.8365,260.16503 540.349,259 540.58,259 c 0.231,0 0.42,10.8263 0.42,24.05845 0,24.66664 -0.99863,35.78941 -3.76563,41.94155 -9.4261,20.95799 -48.8767,35.66785 -78.73437,29.35752 z M 71.008283,273.75 l 0.0083,-52.25 17.241716,-6.69292 c 22.599581,-8.77275 23.757421,-9.08839 31.693551,-8.63996 20.48577,1.15755 25.79125,23.21046 9.92139,41.23956 l -4.03322,4.58199 2.6451,1.00566 c 1.4548,0.55312 2.98038,1.00567 3.39016,1.00567 1.29078,0 7.19757,6.24636 8.92608,9.43921 1.11122,2.0526 1.64175,5.3665 1.61067,10.06079 -0.0917,13.85429 -9.0476,25.58078 -25.41203,33.27362 C 109.20368,310.43863 72.608575,326 71.786024,326 c -0.432313,0 -0.782297,-23.5125 -0.777741,-52.25 z m 32.281557,18.13715 C 111.5192,287.75728 115,282.94111 115,275.68452 115,269.06492 112.18923,266 106.11855,266 c -7.66248,0 -8.260756,0.92682 -8.867976,13.73789 C 96.761085,290.06508 97.108134,294 98.508453,294 c 0.314173,0 2.465797,-0.95078 4.781387,-2.11285 z m 0.30696,-42.39101 c 5.42511,-3.17933 8.25999,-7.16381 9.00803,-12.66099 1.0841,-7.96673 -4.14461,-11.63455 -12.45561,-8.73732 L 97,229.19565 v 11.40218 C 97,248.59316 97.347234,252 98.162142,252 c 0.639179,0 3.084768,-1.12674 5.434658,-2.50386 z m 61.1207,35.41228 c -8.56595,-2.01704 -15.65166,-8.61849 -17.61352,-16.40976 C 146.40202,265.71091 146,251.22146 146,228.70905 v -35.4053 l 4.25,-1.76115 c 7.98971,-3.31084 8.84947,-3.5426 13.14207,-3.5426 8.14938,0 8.03575,-0.48438 8.60793,36.69278 l 0.5,32.48709 2.36078,1.91006 c 2.80616,2.27041 4.13566,2.35622 8.46694,0.5465 7.14029,-2.98341 7.11494,-2.83589 7.67228,-44.63602 l 0.5,-37.4996 6.5,-2.23864 c 8.02698,-2.76455 13.02322,-2.87338 16.13922,-0.35154 l 2.36078,1.91063 0.28941,33.25252 c 0.31985,36.74863 -0.40855,43.78114 -5.50444,53.14396 -5.64695,10.37532 -17.48981,18.09121 -32.53859,21.19962 -8.47683,1.75093 -8.65239,1.75708 -14.02888,0.49106 z M 225,216.0388 v -48.96121 l 14.11845,-4.54615 c 18.77411,-6.04528 25.18059,-7.43926 32.55362,-7.08329 15.77307,0.76153 24.02829,11.26479 21.44776,27.28839 -1.28174,7.95891 -4.17657,13.42303 -10.77798,20.34391 l -5.40792,5.66964 9.13107,8.3642 c 10.21075,9.3532 11.935,11.94379 11.935,17.93168 0,10.12429 -11.67956,16.40536 -20.43899,10.99174 -1.74628,-1.07926 -8.04812,-7.15426 -14.00408,-13.5 C 257.60097,226.19197 252.33913,221 251.86395,221 251.38878,221 251,227.32235 251,235.04966 c 0,14.94986 -0.58248,17.37025 -5.22316,21.70383 C 243.66277,258.72767 228.59851,265 225.97121,265 225.35615,265 225,247.04528 225,216.0388 Z m 33.66209,-15.45935 c 13.27282,-11.43186 9.45009,-29.13499 -5.09699,-23.6042 L 251,177.9505 v 14.05993 c 0,15.88835 -0.36369,15.48161 7.66209,8.56902 z m 62.06238,29.99807 c -6.42524,-2.64218 -7.76269,-3.56089 -12.3514,-8.48432 -9.53793,-10.2337 -12.84228,-29.2346 -8.34586,-47.99112 5.43952,-22.69068 21.2113,-37.60795 44.12301,-41.73246 14.69121,-2.64468 28.36659,-0.0891 32.3911,6.05311 2.35824,3.59911 1.55893,11.92208 -1.43196,14.91072 -1.95909,1.95761 -3.25028,2.17123 -13.38877,2.21505 -15.11982,0.0654 -19.87505,1.49784 -26.31782,7.92815 -6.80793,6.79476 -8.9052,12.8177 -8.88761,25.52335 0.0153,11.05903 1.86799,16.00645 7.38272,19.71499 6.25581,4.20691 19.21462,1.66928 20.64842,-4.04342 0.86411,-3.44292 0.10157,-12.19553 -1.0463,-12.0095 -0.55,0.0891 -2.66255,0.47204 -4.69456,0.85089 -3.15297,0.58785 -4.07587,0.30751 -6.29569,-1.9123 -2.36214,-2.36214 -2.57395,-3.21676 -2.30543,-9.3019 l 0.29568,-6.70078 16.78198,-3.69861 c 9.23009,-2.03423 17.89259,-3.97735 19.25,-4.31804 L 379,166.9619 l -0.0439,20.26905 c -0.0473,21.83912 -0.58905,24.97689 -5.4018,31.28674 -8.99693,11.79557 -37.5963,18.32415 -52.82984,12.05983 z M 386,172.1135 V 124.227 l 2.75,-0.46875 c 1.5125,-0.25781 10.625,-2.08654 20.25,-4.06385 9.625,-1.97731 20.34056,-4.09234 23.81235,-4.70006 3.47179,-0.60773 6.95929,-1.35321 7.75,-1.65664 1.18016,-0.45287 1.43765,0.95866 1.43765,7.881 0,12.0868 -1.0446,12.76827 -26.75,17.45094 l -3.25,0.59204 v 7.88821 c 0,7.67097 0.062,7.8736 2.25,7.35745 C 418.30541,153.55069 439.29454,149 439.65148,149 c 0.19168,0 0.34852,3.11547 0.34852,6.92327 0,10.53268 -1.74211,12.13596 -16.46884,15.15642 L 412,173.44474 v 9.77763 c 0,5.3777 0.1125,9.77387 0.25,9.76928 0.1375,-0.005 7,-1.5216 15.25,-3.37112 l 15,-3.36276 0.30921,6.12111 c 0.42503,8.41387 -0.47576,12.35653 -3.2364,14.16537 -2.61922,1.71618 -10.39311,3.72419 -39.07281,10.09259 -3.85,0.85491 -8.30465,1.96135 -9.89922,2.45877 C 389.0062,219.59302 387.3187,220 386.85078,220 386.38285,220 386,198.45107 386,172.1135 Z m 64,-13.00651 c 0,-42.33191 0.1578,-46.95357 1.62235,-47.51557 0.89229,-0.3424 5.50479,-1.27315 10.25,-2.06834 4.74521,-0.79518 11.32765,-1.91057 14.62765,-2.47864 10.70086,-1.84207 21.35198,-1.32667 27.00728,1.30687 9.56798,4.45559 14.01588,12.1364 13.31772,22.99761 -0.50747,7.89462 -3.66321,14.39197 -9.92425,20.43297 -2.68948,2.59496 -4.89239,5.0231 -4.89535,5.39586 -0.003,0.37276 4.22436,5.47502 9.39407,11.33836 6.49046,7.36131 9.54167,11.62949 9.85894,13.79119 1.25001,8.51683 -4.31288,14.6927 -13.23438,14.6927 -4.90699,0 -5.58359,-0.30561 -9.40903,-4.25 -4.61729,-4.76086 -13.69563,-15.14762 -18.76762,-21.47251 -1.84106,-2.29584 -3.68488,-4.19749 -4.09738,-4.22588 -0.4125,-0.0284 -0.75,6.00222 -0.75,13.40134 0,14.89211 -0.71939,17.60808 -5.42171,20.46908 C 467.25956,202.3328 453.40439,206 450.39304,206 450.17687,206 450,184.89814 450,159.10699 Z M 482.07935,148.75 c 6.04292,-4.63761 8.13293,-7.90389 8.67636,-13.55943 0.39308,-4.09085 0.11064,-5.32422 -1.6142,-7.04906 -2.64254,-2.64254 -6.18649,-3.54325 -10.64808,-2.70625 L 475,126.09063 v 12.95468 c 0,14.76893 0.17246,15.00535 7.07935,9.70469 z"
         id="path7" />
      <path
         style="fill:#105294"
         d="M 273.6798,592.91007 C 246.07476,590.63294 213.15197,582.44238 187,571.3458 137.14093,550.19001 95.437845,516.65128 62.848672,471.5 15.225632,405.51977 -3.3442393,317.57308 13.650913,238.5 26.009581,180.99902 52.675631,132.12554 94.426975,90.45381 128.05334,56.89157 165.4467,33.839157 209.5,19.513127 260.7417,2.8494469 321.95121,0.34275562 371,12.899275 c 6.00373,1.536957 -0.0395,1.174708 -10,-0.599431 C 346.99727,9.8057164 296.1652,9.8328712 280,12.343114 243.42772,18.02231 218.10458,25.662258 189,39.797669 147.47766,59.96409 110.04591,92.627307 84.157368,131.28409 40.89004,195.8909 27.19771,276.94795 46.19788,356 c 5.784673,24.0677 19.061677,54.39575 33.256522,75.96635 L 87,443.43271 v 21.78364 C 87,478.78151 87.369876,487 87.980382,487 c 0.539209,0 7.00301,-2.62109 14.363998,-5.82463 l 13.38362,-5.82464 4.886,4.41435 c 26.43942,23.88722 66.79323,45.30523 103.29921,54.82663 27.99956,7.30278 50.05316,9.80888 80.08679,9.10079 38.13513,-0.89909 62.36476,-6.4085 95.76769,-21.77596 47.75012,-21.96808 93.44138,-69.22444 119.08734,-123.16654 2.54952,-5.3625 5.04438,-9.75 5.54413,-9.75 0.49975,0 3.65189,1.51342 7.00474,3.36315 3.35286,1.84974 9.6961,5.28775 14.0961,7.64004 4.4,2.35229 8.45,4.61265 9,5.02302 0.55,0.41038 4.7125,2.6281 9.25,4.92826 5.57451,2.82584 8.25,4.74692 8.25,5.92374 C 572,419.2491 557.29898,446.66443 547.80419,461 496.16785,538.96235 416.71215,586.24481 326,592.99114 c -15.37935,1.14377 -37.8947,1.10889 -52.3202,-0.0811 z"
         id="path6" />
    </g>
  </g>
</svg>
