<?xml version="1.0"?><svg xmlns="http://www.w3.org/2000/svg" xmlns:xlink="http://www.w3.org/1999/xlink" version="1.1" viewBox="0 0 512 512" style="enable-background:new 0 0 512 512;" xml:space="preserve"><g id="_x33_9_x2C__Sneakers_x2C__Shoes_x2C__Walking_x2C__Stroll_x2C__Trainer"><g><path d="M463.098,262.158c-45.939-21.998-164.689-12.841-264.322-137.382c-2.89-3.613-7.887-4.761-12.061-2.769    c-54.451,25.941-116.943,25.941-171.451-0.002c-6.608-3.147-14.241,1.688-14.241,8.993c0,37.83,0,195.546,0.001,220.016    c0.001,22.034,17.928,39.959,39.962,39.959h430.03c22.035,0,39.962-17.927,39.962-39.962v-20.312    C510.977,300.859,494.421,277.158,463.098,262.158z M20.943,146.172c54.009,21.231,113.772,20.252,167.2-2.934    c6.331,7.569,12.964,14.842,19.861,21.821l-13.269,13.269c-3.89,3.89-3.89,10.196,0,14.086c3.891,3.889,10.194,3.89,14.086,0    l13.587-13.586c4.985,4.509,10.082,8.882,15.302,13.094l-8.541,8.536c-3.89,3.889-3.893,10.195-0.004,14.086    c3.891,3.893,10.198,3.89,14.086,0.004l10.459-10.453c5.542,3.978,11.196,7.791,16.953,11.442l-7.064,7.064    c-3.89,3.89-3.89,10.195,0,14.086c3.891,3.889,10.194,3.89,14.086,0l10.637-10.636c38.192,21.25,80.977,35.154,113.752,39.803    c-0.368,0.248-13.373,15.194-35.923,15.194H317.57c-37.742,0-73.302,14.176-100.61,40.003h-86.423    c-4.81-58.209-51.376-104.781-109.594-109.591V146.172z M491.057,351.011c0,11.051-8.991,20.042-20.042,20.042H40.985    c-11.05,0-20.04-8.991-20.041-20.041V340.97h470.113V351.011z"/></g></g><g id="Layer_1"/></svg>